<svg height="512pt" viewBox="0 0 512 512.0015" width="512pt" xmlns="http://www.w3.org/2000/svg"><path d="m220.769531 376.726562-47.066406 47.066407c-23.570313 23.570312-61.921875 23.578125-85.503906 0-23.566407-23.570313-23.558594-61.921875.011719-85.492188l94.503906-94.503906c21.839844-21.839844 56.378906-23.453125 80.078125-4.816406 1.875 1.472656 3.683593 3.078125 5.414062 4.808593 10.496094 10.492188 26.769531 10.664063 37.046875.382813l29.617188-29.617187c-4.867188-7.386719-10.492188-14.277344-16.824219-20.609376-8.925781-8.921874-18.824219-16.292968-29.371094-22.09375-41.265625-22.761718-92.300781-21.625-132.601562 3.40625-8.371094 5.199219-16.289063 11.429688-23.554688 18.699219l-94.152343 94.152344c-51.152344 51.152344-51.152344 134.378906-.007813 185.527344 51.15625 51.152343 134.378906 51.152343 185.535156 0l84.699219-84.699219c-29.585938 3.914062-60.039062-.148438-87.824219-12.210938zm0 0"/><path d="m473.636719 38.359375c-51.148438-51.148437-134.371094-51.148437-185.527344.007813l-84.691406 84.691406c29.585937-3.917969 60.039062.144531 87.824219 12.210937l47.070312-47.070312c23.570312-23.570313 61.914062-23.570313 85.484375 0 23.578125 23.578125 23.578125 61.921875.007813 85.492187l-94.515626 94.515625c-21.597656 21.597657-55.875 23.089844-79.546874 4.542969-1.9375-1.503906-3.789063-3.148438-5.566407-4.925781-10.320312-10.320313-27.105469-10.3125-37.425781.007812l-29.617188 29.617188c4.871094 7.371093 10.503907 14.269531 16.824219 20.589843 8.988281 8.988282 18.972657 16.394532 29.59375 22.226563 41.492188 22.777344 92.785157 21.445313 133.113281-3.980469 8.101563-5.105468 15.769532-11.1875 22.816407-18.238281l94.15625-94.152344c51.152343-51.15625 51.152343-134.378906 0-185.535156zm0 0"/></svg>