<svg height="512pt" viewBox="-1 0 512 512" width="512pt" xmlns="http://www.w3.org/2000/svg"><path d="m262.613281 387.929688c-4.558593 2.5625-10.128906 2.570312-14.695312.003906l-247.917969-139.152344v208.21875c0 30.328125 24.671875 55 55 55h400c30.328125 0 55-24.671875 55-55v-208.226562zm0 0"/><path d="m480 204.78125v27.445312l17.566406-9.878906zm0 0"/><path d="m255 151c-8.269531 0-15 6.730469-15 15v30c0 8.269531 6.730469 15 15 15s15-6.730469 15-15v-30c0-8.269531-6.730469-15-15-15zm0 0"/><path d="m450 248.101562v-193.101562c0-30.328125-24.671875-55-55-55h-280c-30.328125 0-55 24.671875-55 55v193.058594l195.25 109.589844zm-300-52.101562v-30c0-57.898438 47.101562-105 105-105s105 47.101562 105 105v30.332031c0 42.367188-48.101562 59.113281-75.5625 33.660157-29.035156 25.183593-74.4375 4.46875-74.4375-33.992188v-30c0-24.8125 20.1875-45 45-45s45 20.1875 45 45c0 36.230469.007812 29.007812-.015625 30.664062.429687 19.898438 30.015625 21.121094 30.015625-.332031v-30.332031c0-41.355469-33.644531-75-75-75s-75 33.644531-75 75v30c0 41.355469 33.644531 75 75 75h30c8.285156 0 15 6.714844 15 15s-6.714844 15-15 15h-30c-57.898438 0-105-47.101562-105-105zm0 0"/><path d="m30 204.78125-17.574219 17.574219 17.574219 9.863281zm0 0"/></svg>