<svg id="Layer_1" enable-background="new 0 0 512.414 512.414" height="512" viewBox="0 0 512.414 512.414" width="512" xmlns="http://www.w3.org/2000/svg"><path d="m402.733 206.189 81-39c9.952-4.792 21.905-.608 26.697 9.344 4.791 9.952.608 21.905-9.344 26.696l-81 39c-9.731 4.749-21.89.709-26.697-9.344-4.791-9.952-.608-21.905 9.344-26.696zm-101.466 5.162c7.811 7.811 20.474 7.811 28.285 0l131-131c7.81-7.81 7.81-20.474 0-28.284-7.811-7.811-20.475-7.811-28.285 0l-131 131c-7.81 7.81-7.81 20.474 0 28.284zm191.678 254.987c.004-.003.01-.01.019-.019-.005.006-.012.013-.019.019zm0 0-.003.003c.001 0 .002-.001.003-.003zm-3.811-105.618c-51.675-50.07-104.339-75.669-158.288-24.913-.039.038-.077.075-.115.113l-27.04 26.838c-16.898-9.526-50.778-32.048-86.281-67.55-35.508-35.508-58.035-69.397-67.551-86.278l26.839-27.041c.038-.038.076-.077.113-.115 50.748-53.99 25.169-106.571-24.913-158.288-13.756-14.264-32.238-22.513-52.042-23.228-19.809-.712-38.832 6.183-53.582 19.422-97.036 105.383-26.658 269.027 75.019 371.647.063.064.128.127.192.19 14.148 14.129 30.215 28.112 47.757 41.562 8.765 6.722 21.319 5.064 28.041-3.702 6.721-8.765 5.064-21.32-3.702-28.041-16.237-12.45-31.042-25.335-44.004-38.296-.061-.061-.122-.121-.183-.181-67.884-67.962-108.624-151.41-108.982-223.262-.187-37.275 11.027-68.388 32.431-90.014l.153-.138c14.538-13.048 36.548-12.255 50.108 1.808 51.781 53.698 48.031 79.049 25.151 102.512l-37.074 37.352c-5.814 5.858-7.433 14.686-4.075 22.226 30.642 68.029 125.7 162.343 192.172 192.17 7.541 3.357 16.368 1.739 22.226-4.075l37.346-37.068c23.467-22.885 48.818-26.639 102.52 25.144 14.062 13.561 14.855 35.571 1.797 50.119l-.133.148c-21.627 21.401-52.717 32.635-90.01 32.425-29.471-.147-63.598-8.226-98.69-23.362-10.14-4.374-21.911.301-26.286 10.444-4.375 10.142.301 21.911 10.444 26.286 40.562 17.496 79.029 26.456 114.333 26.633 48.119.307 90.829-16.502 120.119-45.865 13.237-14.747 20.134-33.775 19.419-53.579-.715-19.805-8.964-38.287-23.229-52.043zm-209.401-241.491c9.731 4.749 21.89.709 26.697-9.344l39-81c4.791-9.952.608-21.905-9.344-26.696-9.956-4.793-21.905-.608-26.697 9.344l-39 81c-4.791 9.952-.608 21.904 9.344 26.696z"/></svg>