<svg id="Capa_1" enable-background="new 0 0 512 512" height="512" viewBox="0 0 512 512" width="512" xmlns="http://www.w3.org/2000/svg"><g><path d="m95.681 267.662h107.797v30h-107.797z"/><path d="m95.681 207.659h30.001v30h-30.001z"/><path d="m158.494 207.659h147.541v30h-147.541z"/><path d="m95.019 147.979h74.043v30h-74.043z"/><path d="m204.034 147.979h102.001v30h-102.001z"/><path d="m95.019 327.666h74.043v30h-74.043z"/><path d="m95.019 87.975h211.016v30h-211.016z"/><path d="m393.449 263.553v-263.553h-385.517l1.424 401.863c0 60.73 49.407 110.137 110.138 110.137h258.955v-.013c.334.003.666.013 1 .013 68.715 0 124.619-55.904 124.619-124.619 0-63.982-48.471-116.848-110.619-123.828zm-353.205 150.168c8.296 4.441 17.638 6.799 27.38 6.799h35.336v32.233c0 10.415 2.714 20.205 7.458 28.718-36.003-4.078-64.849-32.097-70.174-67.75zm122.03 68.279c-16.163 0-29.313-13.12-29.313-29.246v-62.233h-65.336c-7.576 0-14.628-2.919-19.854-8.221-5.541-5.62-8.527-13.259-8.411-21.51l-1.32-330.79h325.409v233.786c-21.274 2.739-40.881 10.868-57.414 22.963v-19.086h-66.954v30h53.971c-9.724 9.368-17.933 20.296-24.222 32.379v-2.375h-64.796v30h54.385c-2.339 9.527-3.589 19.477-3.589 29.715 0 37.815 16.935 71.746 43.613 94.619h-136.169zm217.175 0c-52.173 0-94.619-42.446-94.619-94.619s42.446-94.619 94.619-94.619 94.619 42.446 94.619 94.619-42.446 94.619-94.619 94.619z"/><path d="m361.57 396.735-19.961-19.961-21.213 21.213 41.174 41.175 76.931-76.932-21.212-21.213z"/></g></svg>