<svg id="Layer_1" enable-background="new 0 0 512 512" height="512" viewBox="0 0 512 512" width="512" xmlns="http://www.w3.org/2000/svg"><path d="m173.055 336h318.945c11.046 0 20-8.954 20-20v-42.051c.059-28.819-20.365-53.653-48.563-59.051l-63.597-12.174c-16.043-3.071-26.54-18.039-23.994-34.14 1.819-9.335 17.525-85.392 17.153-99.612-.085-18.432-7.516-35.771-20.947-48.859-13.311-12.969-30.812-20.112-49.281-20.113-18.532 0-35.878 7.245-48.84 20.399-12.811 13.001-19.885 30.294-19.931 48.712-.213 14.491 15.604 99.446 15.604 99.446 2.553 16.106-7.951 31.085-23.993 34.155l-63.792 12.205c-28.222 5.399-48.714 30.173-48.726 58.89 0 0-.046 80.854-.046 106.193 0 56.603-52.264 95.426-52.742 95.775-7.04 5.074-10.005 14.109-7.339 22.369 2.668 8.259 10.355 13.856 19.034 13.856h109c5.058 0 9.927-1.916 13.629-5.362 12.424-11.567 23.74-25.146 33.531-40.028-1.193 6.37-2.944 12.056-5.19 16.736-2.975 6.197-2.559 13.487 1.103 19.306s10.053 9.348 16.927 9.348h200c3.999 0 7.906-1.199 11.217-3.441 4.072-2.759 39.783-28.988 39.783-99.559 0-11.046-8.954-20-20-20s-20 8.954-20 20c0 37.047-12.293 55.735-18.756 63h-85.021c.896-7.722 1.65-17.188 1.775-27.765.094-8.027-.497-16.48-1.058-23.773-.848-11.014-10.476-19.247-21.476-18.407-11.014.848-19.254 10.463-18.407 21.476.496 6.438 1.018 13.843.942 20.233-.134 11.33-1.121 21.146-2.098 28.236h-40.07c1.346-7.811 2.078-16.128 2.166-24.797.216-21.295-3.6-43.742-10.743-63.209-3.009-8.204-10.991-13.478-19.725-13.088-8.729.415-16.177 6.448-18.396 14.899-8.349 31.805-26.165 63.469-48.285 86.194h-53.147c16.892-22.114 33.345-53.528 33.345-92 .002-16.45.005-31.158.009-43.999zm.039-62.161c.004-9.577 6.835-17.835 16.241-19.635l63.792-12.205c18.037-3.451 33.756-13.646 44.261-28.708s14.643-33.335 11.649-51.453c-.024-.151-.052-.302-.08-.453 0 0-15.184-80.358-14.961-91.699.003-.131.004-.262.004-.394 0-16.425 12.638-29.292 28.771-29.292 16.386 0 30.229 13.414 30.229 29.292 0 .223-16.544 92.316-16.574 92.498-3.011 18.125 1.116 36.41 11.62 51.486 10.503 15.076 26.227 25.28 44.272 28.735l63.598 12.174c9.339 1.788 16.104 10.065 16.084 19.723v22.092h-298.926c.011-14.517.02-22.15.02-22.161zm-133.094 162.161c0 11.046-8.954 20-20 20s-20-8.954-20-20 8.954-20 20-20 20 8.954 20 20zm36-50c-11.046 0-20-8.954-20-20s8.954-20 20-20 20 8.954 20 20-8.954 20-20 20zm-15-97c0 11.046-8.954 20-20 20s-20-8.954-20-20 8.954-20 20-20 20 8.954 20 20zm25-113c0-11.046 8.954-20 20-20s20 8.954 20 20-8.954 20-20 20-20-8.954-20-20zm-70-71c0-11.046 8.954-20 20-20s20 8.954 20 20-8.954 20-20 20-20-8.954-20-20z"/></svg>